<svg preserveAspectRatio="xMidYMid meet" data-bbox="9.33 7.326 105.03 26.999" viewBox="0 0 123.2 40.9" xmlns="http://www.w3.org/2000/svg" data-type="ugc" role="presentation" aria-hidden="true" aria-label="">
    <g>
        <defs>
            <linearGradient gradientUnits="userSpaceOnUse" y2="11.37" x2="33.36" y1="37.35" x1="15.03" id="5431f7f2-6a7b-4c2d-89d7-38a350c16135_comp-l7aek9z9">
                <stop stop-color="#0e20c4" offset=".04"></stop>
                <stop stop-color="#08b4ea" offset=".56"></stop>
                <stop stop-color="#0e20c4" offset="1"></stop>
            </linearGradient>
            <linearGradient gradientUnits="userSpaceOnUse" gradientTransform="matrix(1 0 0 -1 0 40.87)" y2="8.71" x2="10.49" y1="36.6" x1="22.58" id="5609a612-440b-4178-a34d-899169536934_comp-l7aek9z9">
                <stop stop-color="#1dfee3" offset=".02"></stop>
                <stop stop-color="#113cb6" offset=".34"></stop>
                <stop stop-color="#1dfee3" offset=".95"></stop>
            </linearGradient>
        </defs>
        <path d="M33.39 16.84a7.9 7.9 0 0 0-2.02-3.1c-.4-.36-.83-.67-1.29-.92-.24-.13-.49-.24-.74-.34l-.2-.08c-.3-.11-.61-.2-.93-.28a9.8 9.8 0 0 0-3.2-.23c.06.15.13.3.19.46.5 1.43.74 2.94.7 4.46.02 1.58-.22 3.16-.71 4.66-.05.15-.11.28-.17.44-.16.42-.35.83-.56 1.23-.04.07-.07.15-.11.22-.19.35-.39.68-.61 1-.19.28-.38.53-.59.78-.09.1-.19.2-.28.3-.19.21-.38.41-.58.59-.09.09-.19.17-.28.25-.24.21-.48.4-.74.59-.09.06-.18.14-.28.2-.33.23-.67.44-1.02.62-.21.11-.43.21-.64.31-.49.22-.99.41-1.5.56-.09.03-.17.05-.26.07l-.06.02c-.55.15-1.11.27-1.67.35l-5.61.8c-.13.02-.26.02-.38 0-.07 0-.13-.03-.19-.06l6.12 3.38.48.26 1.59.88h.02s.08.04.13.05h.04c.13.02.26.02.38 0l5.62-.8c.58-.09 1.15-.21 1.71-.37.09-.03.18-.05.26-.07.51-.15 1.01-.34 1.5-.56.04-.02.09-.03.14-.05a13 13 0 0 0 1.52-.88c.03-.02.07-.04.1-.06s.12-.1.18-.14c.25-.19.5-.38.74-.59.05-.05.11-.08.17-.13.05-.05.07-.08.11-.12.2-.19.39-.39.58-.59.06-.06.12-.11.17-.17l.1-.12c.2-.24.4-.5.58-.76 0 0 .01-.02.02-.03.22-.32.42-.66.61-1l.04-.06s.04-.1.07-.15c.21-.4.39-.81.56-1.23.02-.06.05-.11.08-.17.02-.06.06-.18.09-.28.49-1.51.74-3.08.72-4.67.03-1.52-.21-3.03-.72-4.46Z" fill="#ffffff"></path>
        <path d="m26.87 11.07-1.69-.92-.7-.4-1.39-.76-1.19-.66-.26-.15c-.15-.08-.31-.14-.48-.21-.07-.03-.13-.06-.2-.09q-.405-.15-.84-.27h-.09c-1.35-.32-2.74-.37-4.11-.15l-5.62.8c-.13.02-.26.05-.38.11H9.9v.02s-.08.04-.11.07l-.09.07-.08.06v.02l-.04.05-.06.09c-.02.04-.04.09-.06.13v.03c-.06.16-.09.32-.09.49l-.04 19.54c0 .41.11.68.34.8.06.03.13.05.19.06.13.02.26.02.38 0l5.62-.8c.56-.08 1.12-.2 1.67-.35l.03-14.76c0-.16.03-.33.08-.48a.86.86 0 0 1 .44-.52h.02c.12-.06.26-.1.4-.12l5.62-.8c.31-.04.62-.07.92-.1 1.07-.09 2.14 0 3.19.24.31.08.62.17.93.28l.2.09c.25.1.5.21.74.34l-3.21-1.76Z" fill="#ffffff"></path>
        <path d="M48.82 31.75q-1.98 0-3.54-.99c-1.56-.99-1.87-1.55-2.48-2.69-.59-1.14-.89-2.41-.89-3.82s.3-2.72.89-3.85c.61-1.14 1.43-2.03 2.45-2.69q1.56-.99 3.57-.99c1.02 0 1.94.21 2.74.63.83.42 1.49 1.01 1.98 1.76.51.74.79 1.57.83 2.51v5.14c-.04.94-.31 1.78-.8 2.54s-1.15 1.35-1.98 1.79-1.75.66-2.77.66m.65-3.62q1.095 0 1.89-.48c.55-.34.97-.8 1.27-1.37.31-.6.47-1.28.47-2.06s-.16-1.42-.47-2c-.3-.6-.72-1.06-1.27-1.37q-.795-.51-1.86-.51c-1.065 0-1.37.17-1.92.51-.53.34-.95.8-1.27 1.37-.3.58-.44 1.24-.44 2s.15 1.46.44 2.06a3.5 3.5 0 0 0 1.3 1.37q.825.48 1.86.48m7.26 3.32h-3.84v-3.88l.62-3.52-.65-3.47V12.7h3.87z" fill="#103aab"></path>
        <path d="M66.67 31.75c-1.5 0-2.82-.32-3.98-.96a7.45 7.45 0 0 1-2.77-2.69c-.67-1.14-1-2.43-1-3.88s.32-2.71.97-3.82a7.3 7.3 0 0 1 2.72-2.69q1.71-1.02 3.81-1.02c2.1 0 2.59.32 3.63.96 1.06.62 1.89 1.47 2.48 2.57.61 1.08.92 2.3.92 3.67q0 .39-.06.81-.03.39-.15.9l-11.98.03V22.7l10.18-.03-1.56 1.22c-.04-.86-.2-1.57-.47-2.15-.26-.58-.64-1.02-1.15-1.31q-.735-.48-1.83-.48-1.155 0-2.01.54c-.57.34-1.01.83-1.33 1.46-.3.62-.44 1.35-.44 2.21s.16 1.64.47 2.3c.33.64.81 1.14 1.42 1.49.61.34 1.32.51 2.12.51q1.095 0 1.98-.36.885-.39 1.53-1.14l2.27 2.3c-.69.82-1.53 1.43-2.54 1.85-.98.42-2.06.63-3.22.63Z" fill="#103aab"></path>
        <path d="M75.1 25.59V15.46c0-1.16.25-2.17.74-3.05.49-.9 1.19-1.6 2.1-2.12.9-.52 1.97-.78 3.19-.78.92 0 1.72.16 2.39.48l-1.36 3.32c-.26-.12-.58-.18-.97-.18q-1.065 0-1.65.6c-.37.38-.56.93-.56 1.64v10.22h-3.87Zm.35-5.14v-3.44h7.18v3.44z" fill="#103aab"></path>
        <path d="M94.26 31.44v-8.28c0-.86-.27-1.55-.8-2.09q-.795-.81-2.07-.81c-.55 0-1.04.12-1.48.36-.43.24-.78.58-1.03 1.02-.24.44-.35.95-.35 1.52l-1.51-.78c0-1.14.24-2.12.71-2.96a5.2 5.2 0 0 1 2.01-2c.87-.48 1.84-.72 2.92-.72s1.98.27 2.8.81c.83.52 1.48 1.2 1.95 2.06.47.84.71 1.74.71 2.72v9.15h-3.87Zm-9.59-5.87V17h3.87v8.57z" fill="#103aab"></path>
        <path d="M107.58 31.75c-1.5 0-2.82-.32-3.98-.96a7.45 7.45 0 0 1-2.77-2.69c-.67-1.14-1-2.43-1-3.88s.32-2.71.97-3.82a7.3 7.3 0 0 1 2.72-2.69q1.71-1.02 3.81-1.02c2.1 0 2.59.32 3.63.96 1.06.62 1.89 1.47 2.48 2.57.61 1.08.92 2.3.92 3.67q0 .39-.06.81-.03.39-.15.9l-11.98.03V22.7l10.18-.03-1.56 1.22c-.04-.86-.2-1.57-.47-2.15-.26-.58-.64-1.02-1.15-1.31q-.735-.48-1.83-.48-1.155 0-2.01.54c-.57.34-1.01.83-1.33 1.46-.3.62-.44 1.35-.44 2.21s.16 1.64.47 2.3c.33.64.81 1.14 1.42 1.49.61.34 1.32.51 2.12.51q1.095 0 1.98-.36.885-.39 1.53-1.14l2.27 2.3c-.69.82-1.54 1.43-2.54 1.85-.98.42-2.06.63-3.22.63Z" fill="#103aab"></path>
        <path d="M75.08 27.98v3.37h13.35v-3.37z" fill="#1df8e2"></path>
        <path d="M33.29 16.8a7.64 7.64 0 0 0-2.01-3.08c-.39-.36-.83-.66-1.29-.92-.24-.13-.48-.24-.73-.34l-.2-.08c-.3-.11-.61-.2-.92-.28-1.04-.25-2.12-.32-3.18-.23.06.15.13.3.19.46.5 1.43.74 2.93.7 4.44.02 1.58-.22 3.15-.7 4.64-.05.15-.11.28-.17.44-.16.42-.35.83-.55 1.23-.04.07-.07.15-.11.22-.19.34-.39.68-.61 1-.19.28-.38.53-.59.78-.09.1-.19.2-.28.29-.19.2-.38.4-.58.59-.09.09-.19.17-.28.25-.24.21-.48.4-.73.59-.09.06-.18.13-.28.2-.33.23-.66.43-1.01.62-.21.11-.42.21-.64.31-.48.22-.98.41-1.49.56-.09.03-.17.05-.26.07l-.06.02c-.55.15-1.1.27-1.66.35l-5.59.8c-.13.02-.25.02-.38 0-.07 0-.13-.03-.19-.06l6.1 3.36.47.26 1.59.87h.02s.08.04.12.05h.04c.13.02.26.02.38 0l5.6-.8c.58-.08 1.15-.21 1.71-.36.09-.03.17-.04.26-.07.51-.15 1.01-.34 1.49-.56.04-.02.09-.03.14-.05.17-.08.34-.17.5-.26.35-.19.69-.39 1.01-.62.03-.02.07-.04.1-.06s.12-.1.18-.14c.25-.19.5-.38.73-.59.05-.05.11-.08.17-.13.05-.05.07-.08.11-.12.2-.19.39-.39.58-.59.06-.06.12-.11.17-.17l.1-.12c.2-.24.39-.5.58-.76 0 0 .01-.02.02-.03.22-.32.42-.66.61-1l.04-.06s.04-.1.07-.15c.21-.4.39-.81.55-1.23.02-.06.05-.11.07-.17s.06-.18.09-.28c.49-1.5.73-3.07.72-4.65.03-1.51-.21-3.02-.71-4.44Z" fill="url(#5431f7f2-6a7b-4c2d-89d7-38a350c16135_comp-l7aek9z9)"></path>
        <path d="m26.8 11.05-1.69-.91-.7-.4-1.39-.76-1.19-.66-.26-.15c-.15-.08-.31-.14-.47-.2-.07-.03-.13-.06-.2-.09-.27-.1-.55-.19-.83-.27h-.09c-1.34-.32-2.73-.37-4.09-.15l-5.6.8c-.13.02-.26.05-.38.11h-.02v.02s-.08.04-.11.07l-.09.07-.07.06v.02l-.04.05-.06.09c-.02.04-.04.08-.06.13v.03c-.06.16-.09.32-.09.49l-.04 19.46c0 .41.11.68.34.8.06.03.13.05.19.06.13.02.25.02.38 0l5.6-.8c.56-.08 1.12-.2 1.66-.35l.02-14.7c0-.16.03-.32.07-.48a.9.9 0 0 1 .16-.3c.08-.09.17-.16.28-.22h.02c.12-.06.26-.1.39-.12l5.6-.8c.31-.04.62-.07.91-.1 1.06-.09 2.13 0 3.17.24.31.08.62.17.92.28l.2.09c.25.1.5.21.73.34l-3.2-1.75Z" fill="url(#5609a612-440b-4178-a34d-899169536934_comp-l7aek9z9)"></path>
    </g>
</svg>