<svg width="1676" height="968" viewBox="0 0 1676 968" fill="none" xmlns="http://www.w3.org/2000/svg">
<g opacity="0.6" clip-path="url(#clip0_32_812)">
<path d="M111.047 356.268C172.423 285.781 293.629 376.97 469.25 337.061C621.359 302.479 630.11 210.622 751.642 215.177C840.431 218.487 937.183 269.755 990.356 359.072C1049 457.551 1027.68 557.81 1021.7 582.139C994.983 691.263 915.698 748.826 887.728 768.487C772.488 849.44 643.173 835.254 581.136 828.479C348.1 802.957 98.6139 636.583 87.5053 455.701C86.0289 432.021 83.342 388.098 111.047 356.268Z" fill="url(#paint0_linear_32_812)"/>
</g>
<g opacity="0.3">
<mask id="mask0_32_812" style="mask-type:alpha" maskUnits="userSpaceOnUse" x="1544" y="546" width="11" height="11">
<path d="M1549.23 556.425C1552.12 556.425 1554.46 554.091 1554.46 551.212C1554.46 548.334 1552.12 546 1549.23 546C1546.34 546 1544 548.334 1544 551.212C1544 554.091 1546.34 556.425 1549.23 556.425Z" fill="url(#paint1_linear_32_812)"/>
</mask>
<g mask="url(#mask0_32_812)">
<path d="M1549.23 556.425C1552.12 556.425 1554.46 554.091 1554.46 551.212C1554.46 548.334 1552.12 546 1549.23 546C1546.34 546 1544 548.334 1544 551.212C1544 554.091 1546.34 556.425 1549.23 556.425Z" fill="url(#paint2_linear_32_812)"/>
</g>
<mask id="mask1_32_812" style="mask-type:alpha" maskUnits="userSpaceOnUse" x="1574" y="546" width="11" height="11">
<path d="M1579.51 556.425C1582.4 556.425 1584.74 554.091 1584.74 551.212C1584.74 548.334 1582.4 546 1579.51 546C1576.62 546 1574.28 548.334 1574.28 551.212C1574.28 554.091 1576.62 556.425 1579.51 556.425Z" fill="url(#paint3_linear_32_812)"/>
</mask>
<g mask="url(#mask1_32_812)">
<path d="M1579.51 556.425C1582.4 556.425 1584.74 554.091 1584.74 551.212C1584.74 548.334 1582.4 546 1579.51 546C1576.62 546 1574.28 548.334 1574.28 551.212C1574.28 554.091 1576.62 556.425 1579.51 556.425Z" fill="url(#paint4_linear_32_812)"/>
</g>
<mask id="mask2_32_812" style="mask-type:alpha" maskUnits="userSpaceOnUse" x="1604" y="546" width="12" height="11">
<path d="M1609.79 556.425C1612.68 556.425 1615.02 554.091 1615.02 551.212C1615.02 548.334 1612.68 546 1609.79 546C1606.9 546 1604.56 548.334 1604.56 551.212C1604.56 554.091 1606.9 556.425 1609.79 556.425Z" fill="url(#paint5_linear_32_812)"/>
</mask>
<g mask="url(#mask2_32_812)">
<path d="M1609.79 556.425C1612.68 556.425 1615.02 554.091 1615.02 551.212C1615.02 548.334 1612.68 546 1609.79 546C1606.9 546 1604.56 548.334 1604.56 551.212C1604.56 554.091 1606.9 556.425 1609.79 556.425Z" fill="url(#paint6_linear_32_812)"/>
</g>
<mask id="mask3_32_812" style="mask-type:alpha" maskUnits="userSpaceOnUse" x="1634" y="546" width="12" height="11">
<path d="M1640.07 556.425C1642.96 556.425 1645.3 554.091 1645.3 551.212C1645.3 548.334 1642.96 546 1640.07 546C1637.18 546 1634.84 548.334 1634.84 551.212C1634.84 554.091 1637.18 556.425 1640.07 556.425Z" fill="url(#paint7_linear_32_812)"/>
</mask>
<g mask="url(#mask3_32_812)">
<path d="M1640.07 556.425C1642.96 556.425 1645.3 554.091 1645.3 551.212C1645.3 548.334 1642.96 546 1640.07 546C1637.18 546 1634.84 548.334 1634.84 551.212C1634.84 554.091 1637.18 556.425 1640.07 556.425Z" fill="url(#paint8_linear_32_812)"/>
</g>
<mask id="mask4_32_812" style="mask-type:alpha" maskUnits="userSpaceOnUse" x="1665" y="546" width="11" height="11">
<path d="M1670.35 556.425C1673.24 556.425 1675.58 554.091 1675.58 551.212C1675.58 548.334 1673.24 546 1670.35 546C1667.47 546 1665.12 548.334 1665.12 551.212C1665.12 554.091 1667.47 556.425 1670.35 556.425Z" fill="url(#paint9_linear_32_812)"/>
</mask>
<g mask="url(#mask4_32_812)">
<path d="M1670.35 556.425C1673.24 556.425 1675.58 554.091 1675.58 551.212C1675.58 548.334 1673.24 546 1670.35 546C1667.47 546 1665.12 548.334 1665.12 551.212C1665.12 554.091 1667.47 556.425 1670.35 556.425Z" fill="url(#paint10_linear_32_812)"/>
</g>
<mask id="mask5_32_812" style="mask-type:alpha" maskUnits="userSpaceOnUse" x="1544" y="572" width="11" height="11">
<path d="M1549.23 582.596C1552.12 582.596 1554.46 580.262 1554.46 577.383C1554.46 574.505 1552.12 572.171 1549.23 572.171C1546.34 572.171 1544 574.505 1544 577.383C1544 580.262 1546.34 582.596 1549.23 582.596Z" fill="url(#paint11_linear_32_812)"/>
</mask>
<g mask="url(#mask5_32_812)">
<path d="M1549.23 582.596C1552.12 582.596 1554.46 580.262 1554.46 577.383C1554.46 574.505 1552.12 572.171 1549.23 572.171C1546.34 572.171 1544 574.505 1544 577.383C1544 580.262 1546.34 582.596 1549.23 582.596Z" fill="url(#paint12_linear_32_812)"/>
</g>
<mask id="mask6_32_812" style="mask-type:alpha" maskUnits="userSpaceOnUse" x="1574" y="572" width="11" height="11">
<path d="M1579.51 582.596C1582.4 582.596 1584.74 580.262 1584.74 577.383C1584.74 574.505 1582.4 572.171 1579.51 572.171C1576.62 572.171 1574.28 574.505 1574.28 577.383C1574.28 580.262 1576.62 582.596 1579.51 582.596Z" fill="url(#paint13_linear_32_812)"/>
</mask>
<g mask="url(#mask6_32_812)">
<path d="M1579.51 582.596C1582.4 582.596 1584.74 580.262 1584.74 577.383C1584.74 574.505 1582.4 572.171 1579.51 572.171C1576.62 572.171 1574.28 574.505 1574.28 577.383C1574.28 580.262 1576.62 582.596 1579.51 582.596Z" fill="url(#paint14_linear_32_812)"/>
</g>
<mask id="mask7_32_812" style="mask-type:alpha" maskUnits="userSpaceOnUse" x="1604" y="572" width="12" height="11">
<path d="M1609.79 582.596C1612.68 582.596 1615.02 580.262 1615.02 577.383C1615.02 574.505 1612.68 572.171 1609.79 572.171C1606.9 572.171 1604.56 574.505 1604.56 577.383C1604.56 580.262 1606.9 582.596 1609.79 582.596Z" fill="url(#paint15_linear_32_812)"/>
</mask>
<g mask="url(#mask7_32_812)">
<path d="M1609.79 582.596C1612.68 582.596 1615.02 580.262 1615.02 577.383C1615.02 574.505 1612.68 572.171 1609.79 572.171C1606.9 572.171 1604.56 574.505 1604.56 577.383C1604.56 580.262 1606.9 582.596 1609.79 582.596Z" fill="url(#paint16_linear_32_812)"/>
</g>
<mask id="mask8_32_812" style="mask-type:alpha" maskUnits="userSpaceOnUse" x="1634" y="572" width="12" height="11">
<path d="M1640.07 582.596C1642.96 582.596 1645.3 580.262 1645.3 577.383C1645.3 574.505 1642.96 572.171 1640.07 572.171C1637.18 572.171 1634.84 574.505 1634.84 577.383C1634.84 580.262 1637.18 582.596 1640.07 582.596Z" fill="url(#paint17_linear_32_812)"/>
</mask>
<g mask="url(#mask8_32_812)">
<path d="M1640.07 582.596C1642.96 582.596 1645.3 580.262 1645.3 577.383C1645.3 574.505 1642.96 572.171 1640.07 572.171C1637.18 572.171 1634.84 574.505 1634.84 577.383C1634.84 580.262 1637.18 582.596 1640.07 582.596Z" fill="url(#paint18_linear_32_812)"/>
</g>
<mask id="mask9_32_812" style="mask-type:alpha" maskUnits="userSpaceOnUse" x="1665" y="572" width="11" height="11">
<path d="M1670.35 582.596C1673.24 582.596 1675.58 580.262 1675.58 577.383C1675.58 574.505 1673.24 572.171 1670.35 572.171C1667.47 572.171 1665.12 574.505 1665.12 577.383C1665.12 580.262 1667.47 582.596 1670.35 582.596Z" fill="url(#paint19_linear_32_812)"/>
</mask>
<g mask="url(#mask9_32_812)">
<path d="M1670.35 582.596C1673.24 582.596 1675.58 580.262 1675.58 577.383C1675.58 574.505 1673.24 572.171 1670.35 572.171C1667.47 572.171 1665.12 574.505 1665.12 577.383C1665.12 580.262 1667.47 582.596 1670.35 582.596Z" fill="url(#paint20_linear_32_812)"/>
</g>
<mask id="mask10_32_812" style="mask-type:alpha" maskUnits="userSpaceOnUse" x="1544" y="598" width="11" height="11">
<path d="M1549.23 608.712C1552.12 608.712 1554.46 606.379 1554.46 603.5C1554.46 600.621 1552.12 598.287 1549.23 598.287C1546.34 598.287 1544 600.621 1544 603.5C1544 606.379 1546.34 608.712 1549.23 608.712Z" fill="url(#paint21_linear_32_812)"/>
</mask>
<g mask="url(#mask10_32_812)">
<path d="M1549.23 608.712C1552.12 608.712 1554.46 606.379 1554.46 603.5C1554.46 600.621 1552.12 598.287 1549.23 598.287C1546.34 598.287 1544 600.621 1544 603.5C1544 606.379 1546.34 608.712 1549.23 608.712Z" fill="url(#paint22_linear_32_812)"/>
</g>
<mask id="mask11_32_812" style="mask-type:alpha" maskUnits="userSpaceOnUse" x="1574" y="598" width="11" height="11">
<path d="M1579.51 608.712C1582.4 608.712 1584.74 606.379 1584.74 603.5C1584.74 600.621 1582.4 598.287 1579.51 598.287C1576.62 598.287 1574.28 600.621 1574.28 603.5C1574.28 606.379 1576.62 608.712 1579.51 608.712Z" fill="url(#paint23_linear_32_812)"/>
</mask>
<g mask="url(#mask11_32_812)">
<path d="M1579.51 608.712C1582.4 608.712 1584.74 606.379 1584.74 603.5C1584.74 600.621 1582.4 598.287 1579.51 598.287C1576.62 598.287 1574.28 600.621 1574.28 603.5C1574.28 606.379 1576.62 608.712 1579.51 608.712Z" fill="url(#paint24_linear_32_812)"/>
</g>
<mask id="mask12_32_812" style="mask-type:alpha" maskUnits="userSpaceOnUse" x="1604" y="598" width="12" height="11">
<path d="M1609.79 608.712C1612.68 608.712 1615.02 606.379 1615.02 603.5C1615.02 600.621 1612.68 598.287 1609.79 598.287C1606.9 598.287 1604.56 600.621 1604.56 603.5C1604.56 606.379 1606.9 608.712 1609.79 608.712Z" fill="url(#paint25_linear_32_812)"/>
</mask>
<g mask="url(#mask12_32_812)">
<path d="M1609.79 608.712C1612.68 608.712 1615.02 606.379 1615.02 603.5C1615.02 600.621 1612.68 598.287 1609.79 598.287C1606.9 598.287 1604.56 600.621 1604.56 603.5C1604.56 606.379 1606.9 608.712 1609.79 608.712Z" fill="url(#paint26_linear_32_812)"/>
</g>
<mask id="mask13_32_812" style="mask-type:alpha" maskUnits="userSpaceOnUse" x="1634" y="598" width="12" height="11">
<path d="M1640.07 608.712C1642.96 608.712 1645.3 606.379 1645.3 603.5C1645.3 600.621 1642.96 598.287 1640.07 598.287C1637.18 598.287 1634.84 600.621 1634.84 603.5C1634.84 606.379 1637.18 608.712 1640.07 608.712Z" fill="url(#paint27_linear_32_812)"/>
</mask>
<g mask="url(#mask13_32_812)">
<path d="M1640.07 608.712C1642.96 608.712 1645.3 606.379 1645.3 603.5C1645.3 600.621 1642.96 598.287 1640.07 598.287C1637.18 598.287 1634.84 600.621 1634.84 603.5C1634.84 606.379 1637.18 608.712 1640.07 608.712Z" fill="url(#paint28_linear_32_812)"/>
</g>
<mask id="mask14_32_812" style="mask-type:alpha" maskUnits="userSpaceOnUse" x="1665" y="598" width="11" height="11">
<path d="M1670.35 608.712C1673.24 608.712 1675.58 606.379 1675.58 603.5C1675.58 600.621 1673.24 598.287 1670.35 598.287C1667.47 598.287 1665.12 600.621 1665.12 603.5C1665.12 606.379 1667.47 608.712 1670.35 608.712Z" fill="url(#paint29_linear_32_812)"/>
</mask>
<g mask="url(#mask14_32_812)">
<path d="M1670.35 608.712C1673.24 608.712 1675.58 606.379 1675.58 603.5C1675.58 600.621 1673.24 598.287 1670.35 598.287C1667.47 598.287 1665.12 600.621 1665.12 603.5C1665.12 606.379 1667.47 608.712 1670.35 608.712Z" fill="url(#paint30_linear_32_812)"/>
</g>
<mask id="mask15_32_812" style="mask-type:alpha" maskUnits="userSpaceOnUse" x="1544" y="624" width="11" height="11">
<path d="M1549.23 634.883C1552.12 634.883 1554.46 632.55 1554.46 629.671C1554.46 626.792 1552.12 624.458 1549.23 624.458C1546.34 624.458 1544 626.792 1544 629.671C1544 632.55 1546.34 634.883 1549.23 634.883Z" fill="url(#paint31_linear_32_812)"/>
</mask>
<g mask="url(#mask15_32_812)">
<path d="M1549.23 634.883C1552.12 634.883 1554.46 632.55 1554.46 629.671C1554.46 626.792 1552.12 624.458 1549.23 624.458C1546.34 624.458 1544 626.792 1544 629.671C1544 632.55 1546.34 634.883 1549.23 634.883Z" fill="url(#paint32_linear_32_812)"/>
</g>
<mask id="mask16_32_812" style="mask-type:alpha" maskUnits="userSpaceOnUse" x="1574" y="624" width="11" height="11">
<path d="M1579.51 634.883C1582.4 634.883 1584.74 632.55 1584.74 629.671C1584.74 626.792 1582.4 624.458 1579.51 624.458C1576.62 624.458 1574.28 626.792 1574.28 629.671C1574.28 632.55 1576.62 634.883 1579.51 634.883Z" fill="url(#paint33_linear_32_812)"/>
</mask>
<g mask="url(#mask16_32_812)">
<path d="M1579.51 634.883C1582.4 634.883 1584.74 632.55 1584.74 629.671C1584.74 626.792 1582.4 624.458 1579.51 624.458C1576.62 624.458 1574.28 626.792 1574.28 629.671C1574.28 632.55 1576.62 634.883 1579.51 634.883Z" fill="url(#paint34_linear_32_812)"/>
</g>
<mask id="mask17_32_812" style="mask-type:alpha" maskUnits="userSpaceOnUse" x="1604" y="624" width="12" height="11">
<path d="M1609.79 634.883C1612.68 634.883 1615.02 632.55 1615.02 629.671C1615.02 626.792 1612.68 624.458 1609.79 624.458C1606.9 624.458 1604.56 626.792 1604.56 629.671C1604.56 632.55 1606.9 634.883 1609.79 634.883Z" fill="url(#paint35_linear_32_812)"/>
</mask>
<g mask="url(#mask17_32_812)">
<path d="M1609.79 634.883C1612.68 634.883 1615.02 632.55 1615.02 629.671C1615.02 626.792 1612.68 624.458 1609.79 624.458C1606.9 624.458 1604.56 626.792 1604.56 629.671C1604.56 632.55 1606.9 634.883 1609.79 634.883Z" fill="url(#paint36_linear_32_812)"/>
</g>
<mask id="mask18_32_812" style="mask-type:alpha" maskUnits="userSpaceOnUse" x="1634" y="624" width="12" height="11">
<path d="M1640.07 634.883C1642.96 634.883 1645.3 632.55 1645.3 629.671C1645.3 626.792 1642.96 624.458 1640.07 624.458C1637.18 624.458 1634.84 626.792 1634.84 629.671C1634.84 632.55 1637.18 634.883 1640.07 634.883Z" fill="url(#paint37_linear_32_812)"/>
</mask>
<g mask="url(#mask18_32_812)">
<path d="M1640.07 634.883C1642.96 634.883 1645.3 632.55 1645.3 629.671C1645.3 626.792 1642.96 624.458 1640.07 624.458C1637.18 624.458 1634.84 626.792 1634.84 629.671C1634.84 632.55 1637.18 634.883 1640.07 634.883Z" fill="url(#paint38_linear_32_812)"/>
</g>
<mask id="mask19_32_812" style="mask-type:alpha" maskUnits="userSpaceOnUse" x="1665" y="624" width="11" height="11">
<path d="M1670.35 634.883C1673.24 634.883 1675.58 632.55 1675.58 629.671C1675.58 626.792 1673.24 624.458 1670.35 624.458C1667.47 624.458 1665.12 626.792 1665.12 629.671C1665.12 632.55 1667.47 634.883 1670.35 634.883Z" fill="url(#paint39_linear_32_812)"/>
</mask>
<g mask="url(#mask19_32_812)">
<path d="M1670.35 634.883C1673.24 634.883 1675.58 632.55 1675.58 629.671C1675.58 626.792 1673.24 624.458 1670.35 624.458C1667.47 624.458 1665.12 626.792 1665.12 629.671C1665.12 632.55 1667.47 634.883 1670.35 634.883Z" fill="url(#paint40_linear_32_812)"/>
</g>
<mask id="mask20_32_812" style="mask-type:alpha" maskUnits="userSpaceOnUse" x="1544" y="650" width="11" height="11">
<path d="M1549.23 661C1552.12 661 1554.46 658.666 1554.46 655.788C1554.46 652.909 1552.12 650.575 1549.23 650.575C1546.34 650.575 1544 652.909 1544 655.788C1544 658.666 1546.34 661 1549.23 661Z" fill="url(#paint41_linear_32_812)"/>
</mask>
<g mask="url(#mask20_32_812)">
<path d="M1549.23 661C1552.12 661 1554.46 658.666 1554.46 655.788C1554.46 652.909 1552.12 650.575 1549.23 650.575C1546.34 650.575 1544 652.909 1544 655.788C1544 658.666 1546.34 661 1549.23 661Z" fill="url(#paint42_linear_32_812)"/>
</g>
<mask id="mask21_32_812" style="mask-type:alpha" maskUnits="userSpaceOnUse" x="1574" y="650" width="11" height="11">
<path d="M1579.51 661C1582.4 661 1584.74 658.666 1584.74 655.788C1584.74 652.909 1582.4 650.575 1579.51 650.575C1576.62 650.575 1574.28 652.909 1574.28 655.788C1574.28 658.666 1576.62 661 1579.51 661Z" fill="url(#paint43_linear_32_812)"/>
</mask>
<g mask="url(#mask21_32_812)">
<path d="M1579.51 661C1582.4 661 1584.74 658.666 1584.74 655.788C1584.74 652.909 1582.4 650.575 1579.51 650.575C1576.62 650.575 1574.28 652.909 1574.28 655.788C1574.28 658.666 1576.62 661 1579.51 661Z" fill="url(#paint44_linear_32_812)"/>
</g>
<mask id="mask22_32_812" style="mask-type:alpha" maskUnits="userSpaceOnUse" x="1604" y="650" width="12" height="11">
<path d="M1609.79 661C1612.68 661 1615.02 658.666 1615.02 655.788C1615.02 652.909 1612.68 650.575 1609.79 650.575C1606.9 650.575 1604.56 652.909 1604.56 655.788C1604.56 658.666 1606.9 661 1609.79 661Z" fill="url(#paint45_linear_32_812)"/>
</mask>
<g mask="url(#mask22_32_812)">
<path d="M1609.79 661C1612.68 661 1615.02 658.666 1615.02 655.788C1615.02 652.909 1612.68 650.575 1609.79 650.575C1606.9 650.575 1604.56 652.909 1604.56 655.788C1604.56 658.666 1606.9 661 1609.79 661Z" fill="url(#paint46_linear_32_812)"/>
</g>
<mask id="mask23_32_812" style="mask-type:alpha" maskUnits="userSpaceOnUse" x="1634" y="650" width="12" height="11">
<path d="M1640.07 661C1642.96 661 1645.3 658.666 1645.3 655.788C1645.3 652.909 1642.96 650.575 1640.07 650.575C1637.18 650.575 1634.84 652.909 1634.84 655.788C1634.84 658.666 1637.18 661 1640.07 661Z" fill="url(#paint47_linear_32_812)"/>
</mask>
<g mask="url(#mask23_32_812)">
<path d="M1640.07 661C1642.96 661 1645.3 658.666 1645.3 655.788C1645.3 652.909 1642.96 650.575 1640.07 650.575C1637.18 650.575 1634.84 652.909 1634.84 655.788C1634.84 658.666 1637.18 661 1640.07 661Z" fill="url(#paint48_linear_32_812)"/>
</g>
<mask id="mask24_32_812" style="mask-type:alpha" maskUnits="userSpaceOnUse" x="1665" y="650" width="11" height="11">
<path d="M1670.35 661C1673.24 661 1675.58 658.666 1675.58 655.788C1675.58 652.909 1673.24 650.575 1670.35 650.575C1667.47 650.575 1665.12 652.909 1665.12 655.788C1665.12 658.666 1667.47 661 1670.35 661Z" fill="url(#paint49_linear_32_812)"/>
</mask>
<g mask="url(#mask24_32_812)">
<path d="M1670.35 661C1673.24 661 1675.58 658.666 1675.58 655.788C1675.58 652.909 1673.24 650.575 1670.35 650.575C1667.47 650.575 1665.12 652.909 1665.12 655.788C1665.12 658.666 1667.47 661 1670.35 661Z" fill="url(#paint50_linear_32_812)"/>
</g>
</g>
<defs>
<linearGradient id="paint0_linear_32_812" x1="695.823" y1="69.8268" x2="461.583" y2="775.635" gradientUnits="userSpaceOnUse">
<stop stop-color="#F3F7FF"/>
<stop offset="1" stop-color="#DEEEFE"/>
</linearGradient>
<linearGradient id="paint1_linear_32_812" x1="1599" y1="677.134" x2="1527.59" y2="495.33" gradientUnits="userSpaceOnUse">
<stop/>
<stop offset="1" stop-color="white"/>
</linearGradient>
<linearGradient id="paint2_linear_32_812" x1="1599" y1="677.134" x2="1527.59" y2="495.33" gradientUnits="userSpaceOnUse">
<stop stop-color="#97C3F9"/>
<stop offset="1" stop-color="#93C1F9"/>
</linearGradient>
<linearGradient id="paint3_linear_32_812" x1="1625.2" y1="666.843" x2="1553.8" y2="485.039" gradientUnits="userSpaceOnUse">
<stop/>
<stop offset="1" stop-color="white"/>
</linearGradient>
<linearGradient id="paint4_linear_32_812" x1="1625.2" y1="666.843" x2="1553.8" y2="485.039" gradientUnits="userSpaceOnUse">
<stop stop-color="#97C3F9"/>
<stop offset="1" stop-color="#93C1F9"/>
</linearGradient>
<linearGradient id="paint5_linear_32_812" x1="1651.4" y1="656.551" x2="1580" y2="474.747" gradientUnits="userSpaceOnUse">
<stop/>
<stop offset="1" stop-color="white"/>
</linearGradient>
<linearGradient id="paint6_linear_32_812" x1="1651.4" y1="656.551" x2="1580" y2="474.747" gradientUnits="userSpaceOnUse">
<stop stop-color="#97C3F9"/>
<stop offset="1" stop-color="#93C1F9"/>
</linearGradient>
<linearGradient id="paint7_linear_32_812" x1="1677.61" y1="646.259" x2="1606.21" y2="464.456" gradientUnits="userSpaceOnUse">
<stop/>
<stop offset="1" stop-color="white"/>
</linearGradient>
<linearGradient id="paint8_linear_32_812" x1="1677.61" y1="646.259" x2="1606.21" y2="464.456" gradientUnits="userSpaceOnUse">
<stop stop-color="#97C3F9"/>
<stop offset="1" stop-color="#93C1F9"/>
</linearGradient>
<linearGradient id="paint9_linear_32_812" x1="1703.81" y1="635.968" x2="1632.41" y2="454.164" gradientUnits="userSpaceOnUse">
<stop/>
<stop offset="1" stop-color="white"/>
</linearGradient>
<linearGradient id="paint10_linear_32_812" x1="1703.81" y1="635.968" x2="1632.41" y2="454.164" gradientUnits="userSpaceOnUse">
<stop stop-color="#97C3F9"/>
<stop offset="1" stop-color="#93C1F9"/>
</linearGradient>
<linearGradient id="paint11_linear_32_812" x1="1590.05" y1="680.645" x2="1518.65" y2="498.843" gradientUnits="userSpaceOnUse">
<stop/>
<stop offset="1" stop-color="white"/>
</linearGradient>
<linearGradient id="paint12_linear_32_812" x1="1590.05" y1="680.645" x2="1518.65" y2="498.843" gradientUnits="userSpaceOnUse">
<stop stop-color="#97C3F9"/>
<stop offset="1" stop-color="#93C1F9"/>
</linearGradient>
<linearGradient id="paint13_linear_32_812" x1="1616.26" y1="670.354" x2="1544.86" y2="488.551" gradientUnits="userSpaceOnUse">
<stop/>
<stop offset="1" stop-color="white"/>
</linearGradient>
<linearGradient id="paint14_linear_32_812" x1="1616.26" y1="670.354" x2="1544.86" y2="488.551" gradientUnits="userSpaceOnUse">
<stop stop-color="#97C3F9"/>
<stop offset="1" stop-color="#93C1F9"/>
</linearGradient>
<linearGradient id="paint15_linear_32_812" x1="1642.46" y1="660.062" x2="1571.06" y2="478.26" gradientUnits="userSpaceOnUse">
<stop/>
<stop offset="1" stop-color="white"/>
</linearGradient>
<linearGradient id="paint16_linear_32_812" x1="1642.46" y1="660.062" x2="1571.06" y2="478.26" gradientUnits="userSpaceOnUse">
<stop stop-color="#97C3F9"/>
<stop offset="1" stop-color="#93C1F9"/>
</linearGradient>
<linearGradient id="paint17_linear_32_812" x1="1668.67" y1="649.771" x2="1597.27" y2="467.968" gradientUnits="userSpaceOnUse">
<stop/>
<stop offset="1" stop-color="white"/>
</linearGradient>
<linearGradient id="paint18_linear_32_812" x1="1668.67" y1="649.771" x2="1597.27" y2="467.968" gradientUnits="userSpaceOnUse">
<stop stop-color="#97C3F9"/>
<stop offset="1" stop-color="#93C1F9"/>
</linearGradient>
<linearGradient id="paint19_linear_32_812" x1="1694.87" y1="639.479" x2="1623.47" y2="457.677" gradientUnits="userSpaceOnUse">
<stop/>
<stop offset="1" stop-color="white"/>
</linearGradient>
<linearGradient id="paint20_linear_32_812" x1="1694.87" y1="639.479" x2="1623.47" y2="457.677" gradientUnits="userSpaceOnUse">
<stop stop-color="#97C3F9"/>
<stop offset="1" stop-color="#93C1F9"/>
</linearGradient>
<linearGradient id="paint21_linear_32_812" x1="1581.11" y1="684.158" x2="1509.71" y2="502.354" gradientUnits="userSpaceOnUse">
<stop/>
<stop offset="1" stop-color="white"/>
</linearGradient>
<linearGradient id="paint22_linear_32_812" x1="1581.11" y1="684.158" x2="1509.71" y2="502.354" gradientUnits="userSpaceOnUse">
<stop stop-color="#97C3F9"/>
<stop offset="1" stop-color="#93C1F9"/>
</linearGradient>
<linearGradient id="paint23_linear_32_812" x1="1607.32" y1="673.866" x2="1535.91" y2="492.063" gradientUnits="userSpaceOnUse">
<stop/>
<stop offset="1" stop-color="white"/>
</linearGradient>
<linearGradient id="paint24_linear_32_812" x1="1607.32" y1="673.866" x2="1535.91" y2="492.063" gradientUnits="userSpaceOnUse">
<stop stop-color="#97C3F9"/>
<stop offset="1" stop-color="#93C1F9"/>
</linearGradient>
<linearGradient id="paint25_linear_32_812" x1="1633.52" y1="663.575" x2="1562.12" y2="481.771" gradientUnits="userSpaceOnUse">
<stop/>
<stop offset="1" stop-color="white"/>
</linearGradient>
<linearGradient id="paint26_linear_32_812" x1="1633.52" y1="663.575" x2="1562.12" y2="481.771" gradientUnits="userSpaceOnUse">
<stop stop-color="#97C3F9"/>
<stop offset="1" stop-color="#93C1F9"/>
</linearGradient>
<linearGradient id="paint27_linear_32_812" x1="1659.72" y1="653.283" x2="1588.32" y2="471.48" gradientUnits="userSpaceOnUse">
<stop/>
<stop offset="1" stop-color="white"/>
</linearGradient>
<linearGradient id="paint28_linear_32_812" x1="1659.72" y1="653.283" x2="1588.32" y2="471.48" gradientUnits="userSpaceOnUse">
<stop stop-color="#97C3F9"/>
<stop offset="1" stop-color="#93C1F9"/>
</linearGradient>
<linearGradient id="paint29_linear_32_812" x1="1685.93" y1="642.992" x2="1614.53" y2="461.188" gradientUnits="userSpaceOnUse">
<stop/>
<stop offset="1" stop-color="white"/>
</linearGradient>
<linearGradient id="paint30_linear_32_812" x1="1685.93" y1="642.992" x2="1614.53" y2="461.188" gradientUnits="userSpaceOnUse">
<stop stop-color="#97C3F9"/>
<stop offset="1" stop-color="#93C1F9"/>
</linearGradient>
<linearGradient id="paint31_linear_32_812" x1="1572.17" y1="687.67" x2="1500.77" y2="505.866" gradientUnits="userSpaceOnUse">
<stop/>
<stop offset="1" stop-color="white"/>
</linearGradient>
<linearGradient id="paint32_linear_32_812" x1="1572.17" y1="687.67" x2="1500.77" y2="505.866" gradientUnits="userSpaceOnUse">
<stop stop-color="#97C3F9"/>
<stop offset="1" stop-color="#93C1F9"/>
</linearGradient>
<linearGradient id="paint33_linear_32_812" x1="1598.37" y1="677.378" x2="1526.97" y2="495.575" gradientUnits="userSpaceOnUse">
<stop/>
<stop offset="1" stop-color="white"/>
</linearGradient>
<linearGradient id="paint34_linear_32_812" x1="1598.37" y1="677.378" x2="1526.97" y2="495.575" gradientUnits="userSpaceOnUse">
<stop stop-color="#97C3F9"/>
<stop offset="1" stop-color="#93C1F9"/>
</linearGradient>
<linearGradient id="paint35_linear_32_812" x1="1624.58" y1="667.087" x2="1553.18" y2="485.283" gradientUnits="userSpaceOnUse">
<stop/>
<stop offset="1" stop-color="white"/>
</linearGradient>
<linearGradient id="paint36_linear_32_812" x1="1624.58" y1="667.087" x2="1553.18" y2="485.283" gradientUnits="userSpaceOnUse">
<stop stop-color="#97C3F9"/>
<stop offset="1" stop-color="#93C1F9"/>
</linearGradient>
<linearGradient id="paint37_linear_32_812" x1="1650.78" y1="656.795" x2="1579.38" y2="474.992" gradientUnits="userSpaceOnUse">
<stop/>
<stop offset="1" stop-color="white"/>
</linearGradient>
<linearGradient id="paint38_linear_32_812" x1="1650.78" y1="656.795" x2="1579.38" y2="474.992" gradientUnits="userSpaceOnUse">
<stop stop-color="#97C3F9"/>
<stop offset="1" stop-color="#93C1F9"/>
</linearGradient>
<linearGradient id="paint39_linear_32_812" x1="1676.99" y1="646.504" x2="1605.58" y2="464.7" gradientUnits="userSpaceOnUse">
<stop/>
<stop offset="1" stop-color="white"/>
</linearGradient>
<linearGradient id="paint40_linear_32_812" x1="1676.99" y1="646.504" x2="1605.58" y2="464.7" gradientUnits="userSpaceOnUse">
<stop stop-color="#97C3F9"/>
<stop offset="1" stop-color="#93C1F9"/>
</linearGradient>
<linearGradient id="paint41_linear_32_812" x1="1563.23" y1="691.182" x2="1491.82" y2="509.378" gradientUnits="userSpaceOnUse">
<stop/>
<stop offset="1" stop-color="white"/>
</linearGradient>
<linearGradient id="paint42_linear_32_812" x1="1563.23" y1="691.182" x2="1491.82" y2="509.378" gradientUnits="userSpaceOnUse">
<stop stop-color="#97C3F9"/>
<stop offset="1" stop-color="#93C1F9"/>
</linearGradient>
<linearGradient id="paint43_linear_32_812" x1="1589.43" y1="680.89" x2="1518.03" y2="499.087" gradientUnits="userSpaceOnUse">
<stop/>
<stop offset="1" stop-color="white"/>
</linearGradient>
<linearGradient id="paint44_linear_32_812" x1="1589.43" y1="680.89" x2="1518.03" y2="499.087" gradientUnits="userSpaceOnUse">
<stop stop-color="#97C3F9"/>
<stop offset="1" stop-color="#93C1F9"/>
</linearGradient>
<linearGradient id="paint45_linear_32_812" x1="1615.64" y1="670.599" x2="1544.23" y2="488.795" gradientUnits="userSpaceOnUse">
<stop/>
<stop offset="1" stop-color="white"/>
</linearGradient>
<linearGradient id="paint46_linear_32_812" x1="1615.64" y1="670.599" x2="1544.23" y2="488.795" gradientUnits="userSpaceOnUse">
<stop stop-color="#97C3F9"/>
<stop offset="1" stop-color="#93C1F9"/>
</linearGradient>
<linearGradient id="paint47_linear_32_812" x1="1641.84" y1="660.307" x2="1570.44" y2="478.504" gradientUnits="userSpaceOnUse">
<stop/>
<stop offset="1" stop-color="white"/>
</linearGradient>
<linearGradient id="paint48_linear_32_812" x1="1641.84" y1="660.307" x2="1570.44" y2="478.504" gradientUnits="userSpaceOnUse">
<stop stop-color="#97C3F9"/>
<stop offset="1" stop-color="#93C1F9"/>
</linearGradient>
<linearGradient id="paint49_linear_32_812" x1="1668.04" y1="650.016" x2="1596.64" y2="468.212" gradientUnits="userSpaceOnUse">
<stop/>
<stop offset="1" stop-color="white"/>
</linearGradient>
<linearGradient id="paint50_linear_32_812" x1="1668.04" y1="650.016" x2="1596.64" y2="468.212" gradientUnits="userSpaceOnUse">
<stop stop-color="#97C3F9"/>
<stop offset="1" stop-color="#93C1F9"/>
</linearGradient>
<clipPath id="clip0_32_812">
<rect width="937.962" height="671.376" fill="white" transform="translate(245.578) rotate(21.4558)"/>
</clipPath>
</defs>
</svg>
